<svg width="118" height="118" viewBox="0 0 118 118" fill="none" xmlns="http://www.w3.org/2000/svg">
<path opacity="0.4" d="M59 1C91.0325 1 117 26.9675 117 59C117 91.0325 91.0325 117 59 117C26.9675 117 1 91.0325 1 59C1 26.9675 26.9675 1 59 1Z" fill="#EC55A7" stroke="#171717" stroke-width="2"/>
<path d="M59 30.1011C47.201 30.1011 37.625 39.6771 37.625 51.4761C37.625 63.0471 46.688 72.4521 58.715 72.7941C58.886 72.7941 59.114 72.7941 59.228 72.7941C59.342 72.7941 59.513 72.7941 59.627 72.7941C59.684 72.7941 59.741 72.7941 59.741 72.7941C71.255 72.3951 80.318 63.0471 80.375 51.4761C80.375 39.6771 70.799 30.1011 59 30.1011Z" fill="#EC55A7"/>
<path d="M97.646 100.895C87.5 110.243 73.934 116 59 116C44.066 116 30.5 110.243 20.354 100.895C21.722 95.7078 25.427 90.9768 30.842 87.3288C46.403 76.9548 71.711 76.9548 87.158 87.3288C92.63 90.9768 96.278 95.7078 97.646 100.895Z" fill="#EC55A7"/>
</svg>
